<svg version="1.1" id="Layer_1" xmlns="http://www.w3.org/2000/svg" xmlns:xlink="http://www.w3.org/1999/xlink" x="0px" y="0px"
	 width="100%" viewBox="0 0 1080 392" enable-background="new 0 0 1080 392" xml:space="preserve">
<path fill="#F2F5F9" opacity="1.000000" stroke="none" 
	d="
M689.000000,393.000000 
	C460.833344,393.000000 233.166672,392.989227 5.500043,393.093445 
	C1.750798,393.095154 0.902391,392.249481 0.905722,388.499908 
	C1.019129,260.833374 1.019129,133.166656 0.905722,5.500084 
	C0.902391,1.750518 1.750914,0.905902 5.500026,0.906951 
	C362.500000,1.006876 719.500000,1.006876 1076.500000,0.906951 
	C1080.249146,0.905902 1081.097656,1.750518 1081.094360,5.500084 
	C1080.980957,133.166656 1080.980957,260.833374 1081.094360,388.499908 
	C1081.097656,392.249481 1080.249512,393.097534 1076.499878,393.094238 
	C947.500000,392.981049 818.500000,393.000000 689.000000,393.000000 
z"/>
<path fill="#1F2748" opacity="1.000000" stroke="none" 
	d="
M272.757629,52.815575 
	C305.171234,39.615871 337.227661,26.561581 369.291656,13.525801 
	C372.538940,12.205607 375.866241,11.723470 378.584442,14.505881 
	C381.276245,17.261221 380.835663,20.635588 379.529572,23.850765 
	C365.625549,58.077942 351.696075,92.294785 337.738373,126.500107 
	C321.517395,166.251877 305.266418,205.991394 289.018219,245.732040 
	C281.713074,263.599335 274.411041,281.467987 267.051819,299.313019 
	C263.566223,307.765076 260.607269,308.754944 252.591232,304.137756 
	C232.683212,292.670807 212.751785,281.241974 192.973953,269.553864 
	C189.478638,267.488220 187.786087,267.922363 185.377579,271.062103 
	C172.911438,287.313110 160.225311,303.395935 147.557495,319.491455 
	C142.287231,326.187744 136.728867,325.593536 133.132797,317.856049 
	C116.859489,282.841705 100.583450,247.827942 84.538704,212.708755 
	C82.006073,207.165253 78.625053,203.264511 73.209717,200.260437 
	C55.161251,190.248291 37.415489,179.691376 19.515718,169.409409 
	C16.495634,167.674606 14.726901,165.471375 14.947518,161.813202 
	C15.161839,158.259430 17.383535,156.491409 20.308100,155.304062 
	C52.685047,142.159317 85.079155,129.056808 117.451202,115.900040 
	C160.616806,98.356522 203.764664,80.769394 246.925812,63.214897 
	C255.404907,59.766281 263.909698,56.380825 272.757629,52.815575 
z"/>
<path fill="#05334C" opacity="1.000000" stroke="none" 
	d="
M549.823364,36.478798 
	C555.270935,35.491726 556.201721,37.728386 556.164185,42.407089 
	C555.932617,71.232750 556.047791,100.061188 556.047668,128.888702 
	C556.047668,130.480515 556.047668,132.072311 556.047668,134.604172 
	C561.186340,129.418945 565.283203,124.628983 570.616882,121.236969 
	C604.330505,99.796684 645.962646,120.320801 647.740967,160.085175 
	C649.027710,188.857788 648.134644,217.726227 648.344910,246.550980 
	C648.368652,249.801300 646.772766,249.887024 644.341370,249.873840 
	C631.510986,249.804291 618.677551,249.699081 605.851013,249.931290 
	C602.183350,249.997696 601.498169,248.728088 601.520813,245.385818 
	C601.660095,224.890900 601.639099,204.394379 601.559326,183.898819 
	C601.536011,177.909760 601.401550,171.900330 599.980286,166.018738 
	C598.049805,158.029480 593.533691,152.425598 585.091431,151.242432 
	C576.063904,149.977249 567.715027,151.487534 562.087585,159.656525 
	C557.379333,166.491196 556.034180,174.306473 556.042297,182.453033 
	C556.063110,203.282150 555.954834,224.112091 556.133606,244.939682 
	C556.166138,248.734192 555.363892,250.043198 551.284851,249.947678 
	C538.794189,249.655212 526.291138,249.743622 513.795776,249.907486 
	C510.519775,249.950455 509.167969,249.343750 509.174072,245.619171 
	C509.286316,177.299805 509.279388,108.980186 509.184845,40.660774 
	C509.180298,37.378670 510.062683,36.365238 513.355713,36.411892 
	C525.350708,36.581814 537.349670,36.478828 549.823364,36.478798 
z"/>
<path fill="#05324C" opacity="1.000000" stroke="none" 
	d="
M697.995605,117.997803 
	C710.200684,115.524055 716.479004,120.492188 721.251953,131.422562 
	C728.482056,147.980042 737.685547,163.676102 746.061462,179.732513 
	C746.888306,181.317612 747.789795,182.863739 748.755188,184.605789 
	C750.401489,183.693497 750.706360,182.193024 751.341797,180.950455 
	C761.477051,161.131439 771.612610,141.312576 781.718750,121.478729 
	C782.705322,119.542633 783.385986,117.882301 786.283203,117.913162 
	C802.761292,118.088623 819.242249,117.998192 835.687866,117.998192 
	C836.367554,119.896851 835.064270,121.007187 834.405640,122.240662 
	C800.909180,184.971573 767.339783,247.663589 733.950500,310.451416 
	C731.849182,314.402893 729.539429,315.722900 725.121277,315.634949 
	C709.985168,315.333649 694.839355,315.519379 679.622681,315.519379 
	C679.102539,313.269531 680.630859,311.940155 681.422791,310.455994 
	C694.720398,285.533875 708.024292,260.614502 721.515320,235.797028 
	C723.172180,232.749130 723.032776,230.589905 721.367859,227.634766 
	C701.706604,192.738037 682.192627,157.758347 662.644775,122.797729 
	C661.859131,121.392494 661.122620,119.959763 660.073364,117.997803 
	C672.954712,117.997803 685.225769,117.997803 697.995605,117.997803 
z"/>
<path fill="#04324C" opacity="1.000000" stroke="none" 
	d="
M970.885010,154.000031 
	C970.922302,167.328384 970.752136,180.161469 971.044617,192.984009 
	C971.503052,213.076645 988.416260,223.167068 1006.678955,214.394318 
	C1014.490173,210.642075 1016.313782,203.298904 1017.043091,195.710785 
	C1018.192261,183.754974 1017.469421,171.736481 1017.553589,159.745453 
	C1017.641235,147.250381 1017.714539,134.751617 1017.484009,122.260185 
	C1017.417969,118.680267 1018.512634,117.865578 1021.931946,117.918953 
	C1034.757690,118.119171 1047.589844,118.097084 1060.416382,117.927124 
	C1063.447388,117.886955 1064.346680,118.623100 1064.329224,121.761238 
	C1064.186401,147.418198 1064.527954,173.080597 1064.146240,198.732773 
	C1063.704224,228.436371 1050.076050,244.995682 1020.955872,251.220230 
	C999.099854,255.892029 977.199524,255.708557 955.993713,247.912857 
	C934.988586,240.190903 924.810608,224.002380 924.265808,202.247803 
	C923.590393,175.273544 924.074585,148.270981 923.943298,121.281204 
	C923.930420,118.649284 924.648560,117.914154 927.281860,117.939857 
	C940.609314,118.069984 953.940735,118.124840 967.266052,117.912453 
	C970.665710,117.858261 970.971191,119.241173 970.937073,122.011757 
	C970.807739,132.506470 970.885010,143.003723 970.885010,154.000031 
z"/>
<path fill="#05334D" opacity="1.000000" stroke="none" 
	d="
M847.144165,113.999954 
	C847.144226,89.353096 847.240479,65.205452 847.045959,41.060165 
	C847.014893,37.199814 848.172791,36.337803 851.809814,36.397629 
	C864.462708,36.605762 877.121765,36.551231 889.776794,36.425385 
	C892.789734,36.395420 894.079529,36.878979 894.073242,40.436363 
	C893.951965,108.880005 893.959961,177.323944 894.055847,245.767670 
	C894.060486,249.063980 893.152222,249.958405 889.894287,249.911530 
	C877.240601,249.729584 864.578308,249.648651 851.929077,249.945786 
	C847.803589,250.042694 847.054565,248.671249 847.065369,244.892838 
	C847.189270,201.428818 847.144165,157.964325 847.144165,113.999954 
z"/>
<path fill="#05324C" opacity="1.000000" stroke="none" 
	d="
M491.936707,126.034683 
	C491.936707,137.808075 491.936707,149.087830 491.936707,160.799698 
	C480.869171,156.207748 469.985168,155.364029 458.940369,158.866318 
	C451.146820,161.337631 445.913574,166.564316 443.035767,174.188416 
	C440.161224,181.803741 439.780334,189.762665 439.780396,197.774567 
	C439.780518,213.595917 439.654022,229.418991 439.871704,245.237335 
	C439.923767,249.019943 438.862366,250.000351 435.133362,249.930603 
	C422.480713,249.694031 409.819824,249.751816 397.164581,249.903610 
	C394.077026,249.940643 392.881958,249.339996 392.892517,245.878815 
	C393.018463,204.577164 392.995087,163.274963 392.925262,121.973053 
	C392.920624,119.229462 393.147461,117.847313 396.562683,117.906059 
	C409.715454,118.132278 422.876007,118.105568 436.030060,117.920448 
	C439.236511,117.875320 439.967255,118.932945 439.843933,121.911888 
	C439.618286,127.362633 439.779724,132.829407 439.779724,139.450012 
	C443.378235,134.712677 446.047058,130.637695 449.708740,127.359100 
	C461.281097,116.997421 475.289124,115.566780 489.878052,115.977936 
	C491.792206,116.031891 491.975891,117.062813 491.945374,118.546669 
	C491.897369,120.877197 491.935242,123.209480 491.936707,126.034683 
z"/>
<path fill="#252C4D" opacity="1.000000" stroke="none" 
	d="
M80.640900,322.640656 
	C70.394684,332.880707 60.397655,342.869843 50.397728,352.856110 
	C49.574627,353.678070 48.780643,354.538849 47.889797,355.281677 
	C44.211987,358.348297 40.660000,358.352753 37.660816,355.345825 
	C34.725677,352.403076 34.593224,348.555206 37.882153,345.154053 
	C45.739868,337.028198 53.791534,329.089569 61.784824,321.095276 
	C71.542046,311.336792 81.292778,301.571503 91.101875,291.865356 
	C94.939346,288.068176 99.518044,287.751221 102.487404,290.875336 
	C105.335800,293.872162 104.951332,298.194305 101.308723,301.897278 
	C94.546585,308.771454 87.700478,315.563019 80.640900,322.640656 
z"/>
<path fill="#212849" opacity="1.000000" stroke="none" 
	d="
M155.225296,346.581116 
	C166.943802,334.744568 178.415756,323.191071 189.946808,311.696838 
	C194.049133,307.607635 198.050705,307.229004 201.281174,310.403381 
	C204.550903,313.616364 204.278229,317.538635 200.165176,321.690704 
	C189.173462,332.786713 178.075272,343.777130 167.051025,354.841034 
	C164.199463,357.702911 161.028397,359.246094 157.284653,356.858978 
	C153.411819,354.389496 152.954117,350.856171 155.225296,346.581116 
z"/>
<path fill="#22294A" opacity="1.000000" stroke="none" 
	d="
M61.649307,243.648163 
	C57.529236,247.769424 53.710510,251.693619 49.774868,255.496841 
	C46.100109,259.047974 41.627728,259.309509 38.774063,256.305389 
	C35.969231,253.352692 36.080917,249.052734 39.407288,245.634552 
	C45.770443,239.095764 52.217625,232.634216 58.777870,226.293671 
	C62.044300,223.136658 66.200356,223.198288 68.990204,226.027725 
	C71.798851,228.876205 71.851166,232.936737 68.876724,236.306870 
	C66.685631,238.789490 64.234756,241.042816 61.649307,243.648163 
z"/>
<path fill="#272E4E" opacity="1.000000" stroke="none" 
	d="
M24.336590,377.487976 
	C20.399935,378.212952 17.737825,376.807129 16.100927,373.687897 
	C14.743127,371.100525 15.017694,368.452606 16.964245,366.233246 
	C18.798328,364.142059 21.041496,362.791351 24.024357,363.666565 
	C27.239012,364.609772 29.269945,366.853333 29.579306,370.043274 
	C29.918812,373.544128 27.961288,376.014282 24.336590,377.487976 
z"/>
<path fill="#252C4D" opacity="1.000000" stroke="none" 
	d="
M16.546982,274.197083 
	C16.042566,268.654602 18.020163,265.551575 22.071218,264.928680 
	C26.006634,264.323578 29.620575,266.683228 30.280132,270.466797 
	C30.991116,274.545349 29.117516,277.385895 25.328133,278.569214 
	C21.467823,279.774658 18.515528,278.178162 16.546982,274.197083 
z"/>
<path fill="#282E4F" opacity="1.000000" stroke="none" 
	d="
M147.606247,370.348938 
	C147.510483,374.404938 146.133698,377.264465 142.177475,377.939789 
	C139.058014,378.472260 136.192474,377.944916 134.425369,374.832764 
	C132.277313,371.049652 133.668869,366.674927 137.661911,364.773254 
	C141.774384,362.814697 145.324692,364.682617 147.606247,370.348938 
z"/>
<path fill="#18E07E" opacity="1.000000" stroke="none" 
	d="
M307.862335,161.810150 
	C291.161499,202.693192 274.581604,243.210861 258.020081,283.736053 
	C255.359818,290.245605 255.828644,289.507233 250.274368,286.273804 
	C222.501495,270.105743 194.659592,254.055847 166.784119,238.065247 
	C163.952194,236.440735 162.684372,235.562164 165.717636,232.603699 
	C227.604248,172.243027 289.399902,111.789093 351.220978,51.361206 
	C351.569275,51.020756 352.019745,50.784821 353.504883,49.734791 
	C338.045227,87.678688 323.017303,124.562988 307.862335,161.810150 
z"/>
<path fill="#EEF3F2" opacity="1.000000" stroke="none" 
	d="
M314.114258,66.851685 
	C299.008423,82.113319 283.904968,97.121506 268.691895,112.017792 
	C228.481171,151.391205 188.259079,190.753235 147.919373,229.994247 
	C144.464584,233.354950 143.623047,237.227905 143.081375,241.580154 
	C141.073761,257.711243 138.958511,273.828949 136.699554,291.382599 
	C132.065491,281.464447 127.995392,272.806122 123.970047,264.127045 
	C115.360855,245.564728 106.872246,226.945374 98.094307,208.463348 
	C96.407097,204.910919 96.689827,203.210373 100.175957,201.010910 
	C171.113663,156.254578 241.962570,111.357506 313.167511,66.390121 
	C313.692749,66.376869 313.879700,66.462051 314.114258,66.851685 
z"/>
<path fill="#18DE7D" opacity="1.000000" stroke="none" 
	d="
M291.084473,62.664795 
	C270.162079,76.425194 249.285080,89.805260 228.342209,103.081413 
	C182.784348,131.961548 137.169540,160.752045 91.666122,189.717590 
	C88.532448,191.712387 86.410294,191.652466 83.275818,189.785156 
	C69.547058,181.606476 55.625301,173.751923 41.784794,165.760330 
	C40.808914,165.196838 39.594467,164.828171 39.253014,163.146118 
	C53.047886,157.526413 66.895790,151.878021 80.749084,146.242844 
	C132.699738,125.110718 184.646378,103.968781 236.607101,82.861443 
	C254.027222,75.785072 271.484863,68.801048 289.285858,61.695595 
	C290.266663,61.505592 290.751190,61.712585 291.084473,62.664795 
z"/>
<path fill="#19DA7C" opacity="1.000000" stroke="none" 
	d="
M160.686523,279.684998 
	C157.688950,283.445953 154.918655,286.932739 151.185913,291.630920 
	C152.733627,279.603943 153.956543,269.056641 155.482162,258.553314 
	C156.874268,248.969193 157.032181,248.966736 165.432343,253.741608 
	C168.866730,255.693832 174.320572,256.937988 174.999893,260.094025 
	C175.693237,263.315216 170.851456,266.350433 168.560562,269.560394 
	C166.147842,272.941040 163.473740,276.135223 160.686523,279.684998 
z"/>
<path fill="#1CB370" opacity="1.000000" stroke="none" 
	d="
M291.407166,63.027542 
	C290.784943,62.734703 290.500977,62.377163 289.931702,61.817993 
	C291.627747,60.217171 293.652802,58.939312 296.737549,59.014118 
	C295.465759,61.351414 293.401001,61.909790 291.407166,63.027542 
z"/>
<path fill="#EEF3F2" opacity="1.000000" stroke="none" 
	d="
M313.655914,66.518341 
	C314.109131,66.137085 314.921906,65.625694 314.405579,67.059586 
	C314.043243,67.019089 313.924652,66.882050 313.655914,66.518341 
z"/>
</svg>